<svg width="16.000000" height="16.000000" viewBox="0 0 16 16" fill="none" xmlns="http://www.w3.org/2000/svg" xmlns:xlink="http://www.w3.org/1999/xlink">
	<desc>
			Created with Pixso.
	</desc>
	<defs>
		<clipPath id="clip8_350">
			<rect id="Calendar" width="16.000000" height="16.000000" transform="translate(0.000000 -0.500000)" fill="white" fill-opacity="0"/>
		</clipPath>
	</defs>
	<g clip-path="url(#clip8_350)">
		<path id="Vector (Stroke)" d="M5 0.33C5.36 0.33 5.66 0.63 5.66 1L5.66 1.33L10.33 1.33L10.33 1C10.33 0.63 10.63 0.33 11 0.33C11.36 0.33 11.66 0.63 11.66 1L11.66 1.33L12.5 1.33C13.97 1.33 15.16 2.52 15.16 4L15.16 12C15.16 13.47 13.97 14.66 12.5 14.66L3.5 14.66C2.02 14.66 0.83 13.47 0.83 12L0.83 5.5L0.83 4C0.83 2.52 2.02 1.33 3.5 1.33L4.33 1.33L4.33 1C4.33 0.63 4.63 0.33 5 0.33ZM4.33 2.66L3.5 2.66C2.76 2.66 2.16 3.26 2.16 4L2.16 4.83L13.83 4.83L13.83 4C13.83 3.26 13.23 2.66 12.5 2.66L11.66 2.66L11.66 3C11.66 3.36 11.36 3.66 11 3.66C10.63 3.66 10.33 3.36 10.33 3L10.33 2.66L5.66 2.66L5.66 3C5.66 3.36 5.36 3.66 5 3.66C4.63 3.66 4.33 3.36 4.33 3L4.33 2.66ZM13.83 6.16L2.16 6.16L2.16 12C2.16 12.73 2.76 13.33 3.5 13.33L12.5 13.33C13.23 13.33 13.83 12.73 13.83 12L13.83 6.16Z" fill="#787A80" fill-opacity="1.000000" fill-rule="evenodd"/>
	</g>
</svg>
