<svg width="16.000000" height="16.000000" viewBox="0 0 16 16" fill="none" xmlns="http://www.w3.org/2000/svg" xmlns:xlink="http://www.w3.org/1999/xlink">
	<desc>
			Created with Pixso.
	</desc>
	<defs/>
	<path id="Union" d="M0.66 7.5C0.66 3.44 3.94 0.16 8 0.16C12.04 0.16 15.33 3.44 15.33 7.5C15.33 11.54 12.04 14.83 8 14.83C3.94 14.83 0.66 11.54 0.66 7.5ZM8 1.5C4.68 1.5 2 4.18 2 7.5C2 10.81 4.68 13.5 8 13.5C11.31 13.5 14 10.81 14 7.5C14 4.18 11.31 1.5 8 1.5ZM8 3.16C8.36 3.16 8.66 3.46 8.66 3.83L8.66 7.22L10.47 9.02C10.73 9.28 10.73 9.71 10.47 9.97C10.21 10.23 9.78 10.23 9.52 9.97L7.52 7.97C7.4 7.84 7.33 7.67 7.33 7.5L7.33 3.83C7.33 3.46 7.63 3.16 8 3.16Z" fill="#787A80" fill-opacity="1.000000" fill-rule="evenodd"/>
</svg>
