<svg width="11.000000" height="14.000000" viewBox="0 0 11 14" fill="none" xmlns="http://www.w3.org/2000/svg" xmlns:xlink="http://www.w3.org/1999/xlink">
	<desc>
			Created with Pixso.
	</desc>
	<defs/>
	<path id="Vector" d="M3.49 -0.67C3.32 -0.67 3.15 -0.6 3.02 -0.48L-0.48 3.02C-0.6 3.15 -0.67 3.32 -0.67 3.5L-0.67 11C-0.67 12.47 0.52 13.66 1.99 13.66L7.99 13.66C9.47 13.66 10.66 12.47 10.66 11L10.66 2C10.66 0.52 9.47 -0.67 7.99 -0.67L3.49 -0.67ZM0.66 11L0.66 4.66L3.99 4.66C4.36 4.66 4.66 4.36 4.66 4L4.66 0.66L7.99 0.66C8.73 0.66 9.33 1.26 9.33 2L9.33 11C9.33 11.73 8.73 12.33 7.99 12.33L1.99 12.33C1.26 12.33 0.66 11.73 0.66 11ZM3.33 3.33L3.33 1.1L1.1 3.33L3.33 3.33ZM2.33 7.5C2.33 7.13 2.63 6.83 2.99 6.83L6.99 6.83C7.36 6.83 7.66 7.13 7.66 7.5C7.66 7.86 7.36 8.16 6.99 8.16L2.99 8.16C2.63 8.16 2.33 7.86 2.33 7.5ZM2.33 10C2.33 9.63 2.63 9.33 2.99 9.33L4.99 9.33C5.36 9.33 5.66 9.63 5.66 10C5.66 10.36 5.36 10.66 4.99 10.66L2.99 10.66C2.63 10.66 2.33 10.36 2.33 10Z" fill="#424551" fill-opacity="1.000000" fill-rule="evenodd"/>
</svg>
