<svg width="16.000000" height="16.000000" viewBox="0 0 16 16" fill="none" xmlns="http://www.w3.org/2000/svg" xmlns:xlink="http://www.w3.org/1999/xlink">
	<desc>
			Created with Pixso.
	</desc>
	<defs>
		<clipPath id="clip8_364">
			<rect id="mic" width="16.000000" height="16.000000" transform="translate(0.000000 -0.500000)" fill="white" fill-opacity="0"/>
		</clipPath>
	</defs>
	<g clip-path="url(#clip8_364)">
		<path id="Vector" d="M4.13 3.76C4.13 1.63 5.86 -0.1 8 -0.1C10.13 -0.1 11.86 1.63 11.86 3.76L11.86 6.96C11.86 9.1 10.13 10.83 8 10.83C5.86 10.83 4.13 9.1 4.13 6.96L4.13 3.76ZM8 1.23C6.6 1.23 5.46 2.36 5.46 3.76L5.46 6.96C5.46 8.36 6.6 9.5 8 9.5C9.39 9.5 10.53 8.36 10.53 6.96L10.53 3.76C10.53 2.36 9.39 1.23 8 1.23ZM2.66 5.23C3.03 5.23 3.33 5.53 3.33 5.9L3.33 6.96C3.33 9.54 5.42 11.63 8 11.63C10.57 11.63 12.66 9.54 12.66 6.96L12.66 5.9C12.66 5.53 12.96 5.23 13.33 5.23C13.7 5.23 14 5.53 14 5.9L14 6.96C14 10.05 11.66 12.59 8.66 12.92L8.66 13.76L10.13 13.76C10.5 13.76 10.79 14.06 10.79 14.43C10.79 14.8 10.5 15.09 10.13 15.09L5.86 15.09C5.49 15.09 5.2 14.8 5.2 14.43C5.2 14.06 5.49 13.76 5.86 13.76L7.33 13.76L7.33 12.92C4.33 12.59 2 10.05 2 6.96L2 5.9C2 5.53 2.29 5.23 2.66 5.23Z" fill="#424551" fill-opacity="1.000000" fill-rule="evenodd"/>
	</g>
</svg>
