<svg width="16.000000" height="16.000000" viewBox="0 0 16 16" fill="none" xmlns="http://www.w3.org/2000/svg" xmlns:xlink="http://www.w3.org/1999/xlink">
	<desc>
			Created with Pixso.
	</desc>
	<defs>
		<clipPath id="clip8_389">
			<rect id="Play" width="16.000000" height="16.000000" transform="translate(0.000000 -0.500000)" fill="white" fill-opacity="0"/>
		</clipPath>
	</defs>
	<g clip-path="url(#clip8_389)">
		<path id="Vector" d="M8 0.16C3.94 0.16 0.66 3.44 0.66 7.5C0.66 11.54 3.94 14.83 8 14.83C12.04 14.83 15.33 11.54 15.33 7.5C15.33 3.44 12.04 0.16 8 0.16ZM2 7.5C2 4.18 4.68 1.5 8 1.5C11.31 1.5 14 4.18 14 7.5C14 10.81 11.31 13.5 8 13.5C4.68 13.5 2 10.81 2 7.5ZM10.71 8.55C11.41 8.02 11.41 6.97 10.71 6.43L7.65 4.1C6.78 3.43 5.51 4.06 5.51 5.16L5.51 9.83C5.51 10.93 6.78 11.56 7.65 10.89L10.71 8.55ZM6.84 5.16L9.9 7.5L6.84 9.83L6.84 5.16Z" fill="#424551" fill-opacity="1.000000" fill-rule="evenodd"/>
	</g>
</svg>
